# File created by Blade
# Date/Time:  Tue Jan 27 19:58:39 2015
#---------------------------------------------------------
:version 1.10
:name HOM
:units
  mass 1.0
  length 1.000000
  angle deg
:documentation
     Acclaim Skeleton File
:root
   axis xyz
   order TX TY TZ RX RY RZ
   position 0.000000 0.000000 0.000000
   orientation 0 0 0
:bonedata
   begin
      id 1
      name Spine_dum
      direction 0.000000 1.000000 0.000000
      length 6.116652
      axis 0.0 0.0 0.0 xyz
   end
   begin
      id 2
      name LeftUpLeg_dum
      direction 1.000000 0.000000 0.000000
      length 4.711765
      axis 0.0 0.0 0.0 xyz
   end
   begin
      id 3
      name RightUpLeg_dum
      direction -1.000000 0.000000 0.000000
      length 4.711765
      axis 0.0 0.0 0.0 xyz
   end
   begin
      id 4
      name Spine
      direction 0.000000 1.000000 0.000000
      length 0.000000
      axis 0.0 0.0 0.0 xyz
      dof rx ry rz
   end
   begin
      id 5
      name Spine_dum1
      direction 0.000000 1.000000 0.000000
      length 15.225563
      axis 0.0 0.0 0.0 xyz
   end
   begin
      id 6
      name Spine_dum2
      direction 0.000000 1.000000 0.000000
      length 8.977654
      axis 0.0 0.0 0.0 xyz
   end
   begin
      id 7
      name Spine_dum3
      direction 0.000000 1.000000 0.000000
      length 8.977654
      axis 0.0 0.0 0.0 xyz
   end
   begin
      id 8
      name Head
      direction 0.000000 1.000000 0.000000
      length 4.527550
      axis 0.0 0.0 0.0 xyz
      dof rx ry rz
   end
   begin
      id 9
      name LeftShoulder
      direction 1.000000 0.000000 0.000000
      length 7.110130
      axis 0.0 0.0 -90.0 xyz
      dof rx ry rz
   end
   begin
      id 10
      name LeftArm
      direction 1.000000 0.000000 0.000000
      length 10.398341
      axis 0.0 0.0 -90.0 xyz
      dof rx ry rz
   end
   begin
      id 11
      name LeftForeArm
      direction 1.000000 0.000000 0.000000
      length 8.888997
      axis 0.0 0.0 -90.0 xyz
      dof ry rz rx
   end
   begin
      id 12
      name LeftHand
      direction 0.000000 0.000000 0.000000
      length 0.000000
      axis 0.0 0.0 -90.0 xyz
      dof rx ry rz
   end
   begin
      id 13
      name LeftHand_dum1
      direction 0.000000 0.000000 0.000000
      length 0.000000
      axis 0.0 0.0 -90.0 xyz
   end
   begin
      id 14
      name LeftHand_dum2
      direction 1.000000 0.000000 0.000000
      length 3.937000
      axis 0.0 0.0 -90.0 xyz
   end
   begin
      id 15
      name LeftHandThumb1
      direction 0.000000 0.000000 1.000000
      length 3.937000
      axis 0.0 0.0 -90.0 xyz
      dof rx rz ry
   end
   begin
      id 16
      name RightShoulder
      direction -1.000000 0.000000 0.000000
      length 7.110130
      axis 0.0 0.0 90.0 xyz
      dof rx ry rz
   end
   begin
      id 17
      name RightArm
      direction -1.000000 0.000000 0.000000
      length 10.398341
      axis 0.0 0.0 90.0 xyz
      dof rx ry rz
   end
   begin
      id 18
      name RightForeArm
      direction -1.000000 0.000000 0.000000
      length 8.888997
      axis 0.0 0.0 90.0 xyz
      dof ry rz rx
   end
   begin
      id 19
      name RightHand
      direction 0.000000 0.000000 0.000000
      length 0.000000
      axis 0.0 0.0 90.0 xyz
      dof rx ry rz
   end
   begin
      id 20
      name RightHand_dum1
      direction 0.000000 0.000000 0.000000
      length 0.000000
      axis 0.0 0.0 90.0 xyz
   end
   begin
      id 21
      name RightHand_dum2
      direction -1.000000 0.000000 0.000000
      length 3.937000
      axis 0.0 0.0 90.0 xyz
   end
   begin
      id 22
      name RightHandThumb1
      direction 0.000000 0.000000 1.000000
      length 3.937000
      axis 0.0 0.0 90.0 xyz
      dof rx rz ry
   end
   begin
      id 23
      name LeftUpLeg
      direction 0.000000 -1.000000 0.000000
      length 15.510451
      axis 0.0 0.0 0.0 xyz
      dof rx ry rz
   end
   begin
      id 24
      name LeftLeg
      direction 0.000000 -1.000000 0.000000
      length 14.858061
      axis 0.0 0.0 0.0 xyz
      dof rx ry rz
   end
   begin
      id 25
      name LeftFoot
      direction 0.000000 -0.258819 0.965926
      length 5.128852
      axis 15.0 0.0 0.0 xyz
      dof rx ry rz
   end
   begin
      id 26
      name LeftToeBase
      direction 0.000000 0.000000 1.000000
      length 2.952750
      axis 0.0 0.0 0.0 xyz
      dof rx ry rz
   end
   begin
      id 27
      name RightUpLeg
      direction 0.000000 -1.000000 0.000000
      length 15.510451
      axis 0.0 0.0 0.0 xyz
      dof rx ry rz
   end
   begin
      id 28
      name RightLeg
      direction 0.000000 -1.000000 0.000000
      length 14.858061
      axis 0.0 0.0 0.0 xyz
      dof rx ry rz
   end
   begin
      id 29
      name RightFoot
      direction 0.000000 -0.258819 0.965926
      length 5.128852
      axis 15.0 0.0 0.0 xyz
      dof rx ry rz
   end
   begin
      id 30
      name RightToeBase
      direction 0.000000 0.000000 1.000000
      length 2.952750
      axis 0.0 0.0 0.0 xyz
      dof rx ry rz
   end
:hierarchy
   begin
      root Spine_dum LeftUpLeg_dum RightUpLeg_dum
      Spine_dum Spine
      LeftUpLeg_dum LeftUpLeg
      RightUpLeg_dum RightUpLeg
      Spine Spine_dum1 Spine_dum2 Spine_dum3
      Spine_dum1 Head
      Spine_dum2 LeftShoulder
      Spine_dum3 RightShoulder
      LeftShoulder LeftArm
      LeftArm LeftForeArm
      LeftForeArm LeftHand
      LeftHand LeftHand_dum1 LeftHand_dum2
      LeftHand_dum1 LeftHandThumb1
      RightShoulder RightArm
      RightArm RightForeArm
      RightForeArm RightHand
      RightHand RightHand_dum1 RightHand_dum2
      RightHand_dum1 RightHandThumb1
      LeftUpLeg LeftLeg
      LeftLeg LeftFoot
      LeftFoot LeftToeBase
      RightUpLeg RightLeg
      RightLeg RightFoot
      RightFoot RightToeBase
   end

# File created by Blade
# Date/Time:  Tue Jan 27 19:58:31 2015
# Frame Rate: 120.000 fps
#------------------------------------------------------
:FULLY-SPECIFIED
:DEGREES
363
root 5.543132 33.026574 3.486461 -18.270320 40.903705 -11.480186
Spine 13.393064 -18.300197 0.392127
Head -0.079691 -16.590657 10.894342
LeftShoulder -15.797102 -0.647383 31.057411
LeftArm -10.480281 -15.643589 -82.436204
LeftForeArm -4.042128 -0.000000 111.270695
LeftHand 12.255287 -0.000000 1.292824
LeftHandThumb1 -26.253704 0.000000 33.147579
RightShoulder -30.051329 -27.001793 -19.803681
RightArm -6.530742 -9.653009 96.334385
RightForeArm -9.760056 0.000000 15.708331
RightHand 18.795534 -0.000000 5.461408
RightHandThumb1 -24.326973 -0.000000 -32.862282
LeftUpLeg 13.871213 -2.904093 3.398999
LeftLeg 2.410302 -0.000000 -0.000000
LeftFoot -8.778771 -9.569240 -19.143225
LeftToeBase 31.516454 -0.000000 -0.000000
RightUpLeg -73.963631 17.615234 26.761715
RightLeg 100.184135 -0.000000 -0.000000
RightFoot 13.934675 -29.939753 15.592922
RightToeBase 11.789483 -0.000000 -0.000000
364
root 5.535877 33.025820 3.482367 -18.260645 40.917400 -11.473364
Spine 13.425224 -18.307407 0.357877
Head -0.119384 -16.602629 10.935450
LeftShoulder -15.806378 -0.663881 31.078059
LeftArm -10.436618 -15.631659 -82.415980
LeftForeArm -4.100375 -0.000000 111.227158
LeftHand 12.383673 -0.000000 1.360591
LeftHandThumb1 -26.253704 0.000000 33.147579
RightShoulder -30.114960 -26.987776 -19.736137
RightArm -6.436251 -9.596826 96.390437
RightForeArm -9.630144 -0.000000 15.652441
RightHand 18.705328 -0.000000 5.212048
RightHandThumb1 -24.326973 -0.000000 -32.862282
LeftUpLeg 13.839949 -2.912970 3.393586
LeftLeg 2.420162 -0.000000 -0.000000
LeftFoot -8.782568 -9.569252 -19.208521
LeftToeBase 31.633849 -0.000000 -0.000000
RightUpLeg -73.933867 17.610271 26.743094
RightLeg 100.143870 -0.000000 -0.000000
RightFoot 13.943266 -29.900130 15.603842
RightToeBase 11.849697 -0.000000 -0.000000
365
root 5.528481 33.024840 3.477579 -18.243111 40.928652 -11.465036
Spine 13.447200 -18.317359 0.328510
Head -0.152658 -16.636965 10.957617
LeftShoulder -15.804909 -0.694871 31.093100
LeftArm -10.416389 -15.634319 -82.390568
LeftForeArm -4.141144 0.000000 111.185772
LeftHand 12.410480 -0.000000 1.328229
LeftHandThumb1 -26.253704 0.000000 33.147579
RightShoulder -30.173181 -27.008286 -19.658063
RightArm -6.274962 -9.539518 96.468923
RightForeArm -9.567552 -0.000000 15.546271
RightHand 18.630367 -0.000000 4.993850
RightHandThumb1 -24.326973 -0.000000 -32.862282
LeftUpLeg 13.796899 -2.934594 3.383147
LeftLeg 2.451335 -0.000000 -0.000000
LeftFoot -8.802112 -9.537689 -19.168810
LeftToeBase 31.605933 -0.000000 -0.000000
RightUpLeg -73.906939 17.594122 26.734159
RightLeg 100.092016 -0.000000 -0.000000
RightFoot 14.044497 -29.872306 15.526938
RightToeBase 11.639370 -0.000000 -0.000000
366
root 5.520835 33.024343 3.471626 -18.221124 40.939179 -11.456206
Spine 13.462828 -18.333530 0.300789
Head -0.167692 -16.656126 10.966349
LeftShoulder -15.793709 -0.706582 31.086246
LeftArm -10.382428 -15.643675 -82.365622
LeftForeArm -4.163070 -0.000000 111.160398
LeftHand 12.406011 -0.000000 1.451612
LeftHandThumb1 -26.253704 0.000000 33.147579
RightShoulder -30.189049 -27.054411 -19.579912
RightArm -6.079378 -9.406193 96.584133
RightForeArm -9.556250 -0.000000 15.423594
RightHand 18.553867 0.000000 4.772110
RightHandThumb1 -24.326973 -0.000000 -32.862282
LeftUpLeg 13.743275 -2.952900 3.374744
LeftLeg 2.490094 -0.000000 -0.000000
LeftFoot -8.815414 -9.528305 -19.152948
LeftToeBase 31.591695 -0.000000 -0.000000
RightUpLeg -73.877029 17.572512 26.735648
RightLeg 100.031578 -0.000000 -0.000000
RightFoot 14.093413 -29.861282 15.466742
RightToeBase 11.383652 -0.000000 -0.000000
367
root 5.511259 33.024110 3.466647 -18.198323 40.936123 -11.454253
Spine 13.478291 -18.324638 0.280241
Head -0.195856 -16.711320 10.985788
LeftShoulder -15.774512 -0.729955 31.083509
LeftArm -10.355795 -15.666255 -82.342935
LeftForeArm -4.188768 -0.000000 111.134013
LeftHand 12.476019 -0.000000 1.510143
LeftHandThumb1 -26.253704 0.000000 33.147579
RightShoulder -30.242417 -27.047648 -19.502050
RightArm -5.906637 -9.333266 96.710896
RightForeArm -9.446811 -0.000000 15.311530
RightHand 18.431993 -0.000000 4.641993
RightHandThumb1 -24.326973 -0.000000 -32.862282
LeftUpLeg 13.682661 -2.941558 3.385500
LeftLeg 2.533933 -0.000000 -0.000000
LeftFoot -8.822745 -9.552373 -19.197158
LeftToeBase 31.639403 -0.000000 -0.000000
RightUpLeg -73.841234 17.571238 26.750369
RightLeg 99.948878 -0.000000 -0.000000
RightFoot 14.197883 -29.900063 15.345622
RightToeBase 11.477072 -0.000000 -0.000000
368
root 5.502550 33.023169 3.459898 -18.164117 40.938076 -11.433426
Spine 13.503123 -18.289924 0.235457
Head -0.226352 -16.790443 11.047868
LeftShoulder -15.735784 -0.836464 31.104260
LeftArm -10.395038 -15.699531 -82.319344
LeftForeArm -4.187132 -0.000000 111.136833
LeftHand 12.304293 -0.000000 1.437800
LeftHandThumb1 -26.253704 0.000000 33.147579
RightShoulder -30.316142 -27.021178 -19.396960
RightArm -5.751200 -9.278703 96.845484
RightForeArm -9.377912 -0.000000 15.234415
RightHand 18.255974 -0.000000 4.412572
RightHandThumb1 -24.326973 -0.000000 -32.862282
LeftUpLeg 13.617421 -2.942697 3.374813
LeftLeg 2.582278 -0.000000 -0.000000
LeftFoot -8.837687 -9.554644 -19.199278
LeftToeBase 31.694760 -0.000000 -0.000000
RightUpLeg -73.815751 17.558496 26.748994
RightLeg 99.883567 -0.000000 -0.000000
RightFoot 14.214372 -29.948379 15.337230
RightToeBase 11.434824 -0.000000 -0.000000
369
root 5.493852 33.021541 3.452685 -18.123431 40.935223 -11.417545
Spine 13.497854 -18.302177 0.215276
Head -0.240508 -16.920451 11.065704
LeftShoulder -15.719466 -0.872328 31.089286
LeftArm -10.389351 -15.764922 -82.304181
LeftForeArm -4.226215 -0.000000 111.121847
LeftHand 12.434180 -0.000000 1.568069
LeftHandThumb1 -26.253704 0.000000 33.147579
RightShoulder -30.332446 -26.982074 -19.361377
RightArm -5.581996 -9.201050 97.038341
RightForeArm -9.364123 -0.000000 15.118926
RightHand 18.067996 -0.000000 4.101711
RightHandThumb1 -24.326973 -0.000000 -32.862282
LeftUpLeg 13.544721 -2.934232 3.368906
LeftLeg 2.625233 -0.000000 -0.000000
LeftFoot -8.841663 -9.562898 -19.223185
LeftToeBase 31.870980 -0.000000 -0.000000
RightUpLeg -73.803558 17.551397 26.744967
RightLeg 99.820221 -0.000000 -0.000000
RightFoot 14.195097 -30.001361 15.385008
RightToeBase 11.422833 -0.000000 -0.000000
370
root 5.484338 33.021498 3.446010 -18.085705 40.917048 -11.399552
Spine 13.521703 -18.296837 0.172294
Head -0.236834 -16.865308 11.034782
LeftShoulder -15.726957 -0.912021 31.097364
LeftArm -10.367201 -15.830319 -82.315953
LeftForeArm -4.278107 0.000000 111.129115
LeftHand 12.303480 -0.000000 1.661281
LeftHandThumb1 -26.253704 0.000000 33.147579
RightShoulder -30.325866 -26.884539 -19.322187
RightArm -5.459182 -9.145081 97.256594
RightForeArm -9.306288 0.000000 15.019393
RightHand 17.977801 -0.000000 4.069899
RightHandThumb1 -24.326973 -0.000000 -32.862282
LeftUpLeg 13.484012 -2.917030 3.368811
LeftLeg 2.664734 -0.000000 -0.000000
LeftFoot -8.856394 -9.563510 -19.209466
LeftToeBase 31.700961 -0.000000 -0.000000
RightUpLeg -73.769364 17.559109 26.740378
RightLeg 99.745685 -0.000000 -0.000000
RightFoot 14.140933 -30.068322 15.521390
RightToeBase 11.235518 -0.000000 -0.000000
